<mxfile host="app.diagrams.net" modified="2023-08-18T09:03:58.007Z" agent="Mozilla/5.0 (Windows NT 10.0; Win64; x64) AppleWebKit/537.36 (KHTML, like Gecko) Chrome/115.0.0.0 Safari/537.36" etag="bOaR5iv4zowNdgxfJF78" version="21.6.8" type="github">
  <diagram name="Page-1" id="8tOR9QHrYUL1ROe4Uw_J">
    <mxGraphModel dx="880" dy="484" grid="1" gridSize="10" guides="1" tooltips="1" connect="1" arrows="1" fold="1" page="1" pageScale="1" pageWidth="850" pageHeight="1100" math="0" shadow="0">
      <root>
        <mxCell id="0" />
        <mxCell id="1" parent="0" />
        <mxCell id="ANMsLza2xD6_tBrj2IlS-2" value="The Hubs" style="whiteSpace=wrap;html=1;aspect=fixed;" vertex="1" parent="1">
          <mxGeometry x="290" y="230" width="210" height="210" as="geometry" />
        </mxCell>
        <mxCell id="ANMsLza2xD6_tBrj2IlS-4" value="" style="ellipse;whiteSpace=wrap;html=1;aspect=fixed;" vertex="1" parent="1">
          <mxGeometry x="355" y="90" width="80" height="80" as="geometry" />
        </mxCell>
        <mxCell id="ANMsLza2xD6_tBrj2IlS-5" value="" style="ellipse;whiteSpace=wrap;html=1;aspect=fixed;" vertex="1" parent="1">
          <mxGeometry x="345" y="510" width="80" height="80" as="geometry" />
        </mxCell>
        <mxCell id="ANMsLza2xD6_tBrj2IlS-6" value="" style="ellipse;whiteSpace=wrap;html=1;aspect=fixed;" vertex="1" parent="1">
          <mxGeometry x="600" y="295" width="80" height="80" as="geometry" />
        </mxCell>
        <mxCell id="ANMsLza2xD6_tBrj2IlS-7" value="" style="ellipse;whiteSpace=wrap;html=1;aspect=fixed;" vertex="1" parent="1">
          <mxGeometry x="140" y="295" width="80" height="80" as="geometry" />
        </mxCell>
      </root>
    </mxGraphModel>
  </diagram>
</mxfile>
